<?xml version="1.0" encoding="utf-8"?>
<!-- Generator: Adobe Illustrator 27.4.1, SVG Export Plug-In . SVG Version: 6.00 Build 0)  -->
<svg version="1.1" id="Layer_1" xmlns="http://www.w3.org/2000/svg" xmlns:xlink="http://www.w3.org/1999/xlink" x="0px" y="0px"
	 viewBox="0 0 300 200" style="enable-background:new 0 0 300 200;" xml:space="preserve">
<style type="text/css">
	.st0{fill:#F58220;}
	.st1{fill:#FFFFFF;}
</style>
<rect x="80.97" y="33.64" class="st0" width="148.53" height="124.7"/>
<path class="st1" d="M159.26,63.32l-7.84,0.17l-0.77,2.49l-4.72,0.1l-0.33,0.93c-13.41,0.42-26,7.18-30.11,10.37l26.76-1.03
	l-0.66,2.15l6.92-0.15l-11,50.17l9.54-3.05l9.19-47.28l5.24-0.12l0.65-2.39l34.09-0.92c-6.36-3.85-22.53-8.06-31.66-7.95l0.31-1.13
	l-6.12,0.13L159.26,63.32z"/>
<path class="st1" d="M113.14,83.27l-2.33,8.95l5.19-0.25l-4.47,17.68c-1.97,9.11,1.63,15.28,7.39,15.76
	c5.07,0.43,13.71-1.37,16.27-9.37c2.55-7.92,8.62-33.89,8.62-33.89l-10.17,0.38l-6.16,26.59c-1,3.66-2.78,5.59-4.11,5.14
	c-1.33-0.45-1.5-2.14-0.51-6.32c0.99-4.18,6.05-25.27,6.05-25.27L113.14,83.27z"/>
<polygon class="st1" points="159.42,81.62 157.81,90.27 160.35,90.18 157.3,105.78 154.71,106.18 152.44,117.78 175.65,111.74 
	177.19,103.21 166.2,104.59 166.67,101.5 171.94,100.86 173.48,92.11 168.39,92.51 168.84,89.66 176.7,89.08 178.04,80.95 "/>
<path class="st1" d="M199.82,80.1l-18.6,0.7l-1.31,7.97l2.79-0.24l-3.75,22.44l7.23-1.87l1.72-9.29
	C199.53,96.58,199.87,81.68,199.82,80.1 M188.86,93.26l0.86-5.75l3.99-0.24C193.74,88.17,191.82,92.54,188.86,93.26"/>
<path class="st1" d="M154.9,121.8c0,0.83-0.67,1.5-1.5,1.5c-0.83,0-1.49-0.67-1.49-1.5c0-0.83,0.67-1.49,1.49-1.49
	C154.22,120.3,154.9,120.97,154.9,121.8 M154.55,121.8c0-0.67-0.52-1.2-1.15-1.2c-0.63,0-1.15,0.53-1.15,1.2
	c0,0.66,0.51,1.2,1.15,1.2C154.03,122.99,154.55,122.46,154.55,121.8 M153.73,122l0.31,0.57h-0.32l-0.26-0.53h-0.32v0.53h-0.3V121
	h0.63c0.37,0,0.54,0.15,0.56,0.44c0,0.04,0,0.08,0,0.12C154.02,121.78,153.92,121.93,153.73,122 M153.47,121.77
	c0.17,0,0.26-0.08,0.27-0.22v-0.11c-0.01-0.12-0.1-0.19-0.27-0.19h-0.34v0.52H153.47z"/>
</svg>
