<?xml version="1.0" encoding="UTF-8"?><svg id="Layer_2" xmlns="http://www.w3.org/2000/svg" viewBox="0 0 400 64.55"><defs><style>.cls-1{fill:#007965;}.cls-1,.cls-2{stroke-width:0px;}.cls-2{fill:#00af91;}</style></defs><g id="Layer_1-2"><path class="cls-2" d="m48.7,50.63c-6.47,3.79-14.03,4.84-21.29,2.95-8.23-2.15-13.69-9.59-13.69-17.72,0-1.52.19-3.07.59-4.62,1.73-6.64,8.55-10.64,15.19-8.91,4.67,1.22,7.52,5.94,6.46,10.62.29-.45.52-.94.66-1.49.75-2.87.32-5.87-1.2-8.42-1.38-2.3-4.74-4.57-7.36-5.16-5.29-1.19-10.75-.29-15.41,2.58-4.81,2.95-8.13,7.81-9.42,13.3-.02.08-.04.16-.06.24-2.94,12.87,4.61,25.94,17.34,29.41,2.71.74,5.55,1.13,8.49,1.13,12.62,0,23.55-7.25,28.85-17.8.77-1.53-1.28-2.89-2.42-1.62-1.92,2.15-4.18,4-6.74,5.5Z"/><path class="cls-1" d="m9.33,13.92c6.47-3.79,14.03-4.84,21.29-2.95,4.73,1.23,8.7,4.24,11.18,8.46,2.47,4.22,3.16,9.15,1.92,13.88-1.73,6.64-8.55,10.64-15.19,8.91-2.31-.6-4.25-2.07-5.45-4.13-1.16-1.98-1.51-4.29-.99-6.52-.3.46-.53.97-.68,1.52-1.53,5.86,2,11.88,7.86,13.4,11.07,2.89,22.43-3.77,25.32-14.85.07-.26.13-.52.2-.79,3.08-12.97-4.41-26.22-17.26-29.73-2.71-.74-5.56-1.13-8.5-1.13C16.4,0,5.47,7.24.17,17.8c-.77,1.53,1.28,2.89,2.42,1.62,1.92-2.14,4.18-4,6.74-5.5Z"/><path class="cls-1" d="m125.4,54.4c-.73.59-1.88,1.26-3.44,2.01-1.56.76-3.41,1.42-5.53,1.98-2.12.56-4.48.82-7.07.77-4.15-.05-7.87-.79-11.17-2.23-3.3-1.44-6.11-3.39-8.42-5.86-2.32-2.46-4.1-5.3-5.35-8.5-1.24-3.2-1.87-6.63-1.87-10.29,0-3.96.63-7.63,1.9-11.02,1.27-3.39,3.08-6.32,5.42-8.79,2.34-2.46,5.13-4.38,8.35-5.75,3.22-1.37,6.76-2.05,10.62-2.05,3.32,0,6.31.45,8.97,1.36,2.66.9,4.89,1.94,6.7,3.11l-3.37,7.98c-1.37-1.03-3.08-1.99-5.13-2.89-2.05-.9-4.37-1.35-6.96-1.35-2.34,0-4.58.48-6.7,1.43-2.12.95-4.01,2.3-5.64,4.03-1.64,1.73-2.93,3.76-3.88,6.08-.95,2.32-1.43,4.8-1.43,7.43s.43,5.29,1.28,7.65c.85,2.37,2.07,4.41,3.66,6.12,1.59,1.71,3.48,3.03,5.68,3.96,2.2.93,4.69,1.39,7.47,1.39s5.21-.43,7.29-1.28c2.07-.85,3.75-1.82,5.02-2.89l3.59,7.62Z"/><path class="cls-1" d="m144.44,39.38c0,2.1.55,4.02,1.65,5.75,1.1,1.73,2.55,3.14,4.36,4.21,1.81,1.07,3.83,1.61,6.08,1.61s4.44-.54,6.3-1.61c1.86-1.07,3.33-2.48,4.43-4.21,1.1-1.73,1.65-3.65,1.65-5.75V5.25h8.35v34.28c0,3.91-.93,7.34-2.78,10.29-1.86,2.96-4.36,5.25-7.51,6.89-3.15,1.64-6.63,2.45-10.44,2.45s-7.28-.82-10.4-2.45c-3.13-1.64-5.62-3.93-7.47-6.89-1.86-2.95-2.78-6.38-2.78-10.29V5.25h8.57v34.13Z"/><path class="cls-1" d="m206.12,5.25c2.93,0,5.6.39,8.02,1.17,2.42.78,4.49,1.89,6.23,3.33,1.73,1.44,3.06,3.21,3.99,5.31.93,2.1,1.39,4.54,1.39,7.32,0,2.1-.32,4.2-.95,6.3-.64,2.1-1.67,4-3.11,5.71-1.44,1.71-3.33,3.08-5.68,4.1-2.34,1.03-5.23,1.54-8.64,1.54h-7.76v18.53h-8.57V5.25h15.09Zm1.1,26.52c1.85,0,3.42-.29,4.69-.88,1.27-.59,2.27-1.34,3-2.27.73-.93,1.26-1.92,1.57-2.97.32-1.05.48-2.04.48-2.97,0-.88-.15-1.84-.44-2.89-.29-1.05-.79-2.06-1.5-3.04-.71-.98-1.67-1.77-2.89-2.38-1.22-.61-2.76-.92-4.61-.92h-7.91v18.31h7.62Zm9.23,5.2l13.62,21.61h-9.96l-13.84-21.39,10.18-.22Z"/><path class="cls-1" d="m240.1,5.25h8.57v53.32h-8.57V5.25Z"/><path class="cls-1" d="m260.03,31.98c0-3.66.71-7.14,2.12-10.44s3.37-6.21,5.86-8.75c2.49-2.54,5.37-4.53,8.64-5.97,3.27-1.44,6.81-2.16,10.62-2.16s7.21.72,10.51,2.16c3.3,1.44,6.21,3.43,8.75,5.97,2.54,2.54,4.52,5.46,5.93,8.75,1.42,3.3,2.12,6.77,2.12,10.44s-.71,7.28-2.12,10.55c-1.42,3.27-3.41,6.17-5.97,8.68-2.56,2.52-5.48,4.47-8.75,5.86s-6.79,2.09-10.55,2.09-7.28-.7-10.55-2.09c-3.27-1.39-6.15-3.32-8.64-5.79-2.49-2.47-4.44-5.35-5.86-8.64s-2.12-6.85-2.12-10.66Zm8.79-.07c0,2.69.48,5.18,1.43,7.47.95,2.3,2.28,4.31,3.99,6.04,1.71,1.73,3.7,3.09,5.97,4.07,2.27.98,4.7,1.46,7.29,1.46s4.99-.49,7.21-1.46c2.22-.98,4.15-2.33,5.79-4.07,1.64-1.73,2.93-3.75,3.88-6.04.95-2.29,1.43-4.76,1.43-7.4s-.49-5.18-1.46-7.47c-.98-2.29-2.3-4.32-3.96-6.08s-3.61-3.12-5.86-4.1c-2.25-.98-4.66-1.46-7.25-1.46s-5.01.5-7.25,1.5c-2.25,1-4.21,2.37-5.9,4.1-1.69,1.73-2.99,3.76-3.92,6.08-.93,2.32-1.39,4.77-1.39,7.36Z"/><path class="cls-1" d="m353.93,16.16c-1.9-1.03-3.93-1.89-6.08-2.6-2.15-.71-4.2-1.06-6.15-1.06-2.64,0-4.71.59-6.23,1.76-1.51,1.17-2.27,2.78-2.27,4.83,0,1.46.52,2.75,1.57,3.85s2.4,2.05,4.07,2.86c1.66.81,3.42,1.57,5.27,2.31,1.61.59,3.2,1.28,4.76,2.09,1.56.81,2.99,1.78,4.28,2.93,1.29,1.15,2.32,2.61,3.08,4.39.76,1.78,1.14,3.92,1.14,6.41,0,2.83-.7,5.38-2.09,7.65-1.39,2.27-3.43,4.1-6.12,5.49-2.69,1.39-5.89,2.09-9.6,2.09-2.25,0-4.43-.24-6.56-.73-2.12-.49-4.14-1.15-6.04-1.98-1.91-.83-3.66-1.83-5.27-3l3.81-6.59c1.17.88,2.51,1.68,4.03,2.42s3.06,1.32,4.65,1.76c1.59.44,3.11.66,4.58.66s2.97-.26,4.5-.77c1.54-.51,2.79-1.33,3.77-2.45.98-1.12,1.46-2.64,1.46-4.54,0-1.51-.44-2.8-1.32-3.85-.88-1.05-2.01-1.98-3.41-2.78s-2.92-1.53-4.58-2.16c-1.61-.63-3.3-1.34-5.05-2.12-1.76-.78-3.38-1.75-4.87-2.89-1.49-1.15-2.67-2.55-3.55-4.21-.88-1.66-1.32-3.69-1.32-6.08,0-2.93.66-5.48,1.98-7.65,1.32-2.17,3.21-3.89,5.68-5.16,2.47-1.27,5.26-1.95,8.39-2.05,3.76,0,6.97.45,9.63,1.35,2.66.9,5.04,2.01,7.14,3.33l-3.3,6.52Z"/><path class="cls-1" d="m396.56,16.16c-1.91-1.03-3.93-1.89-6.08-2.6-2.15-.71-4.2-1.06-6.15-1.06-2.64,0-4.71.59-6.23,1.76-1.51,1.17-2.27,2.78-2.27,4.83,0,1.46.52,2.75,1.57,3.85,1.05,1.1,2.4,2.05,4.06,2.86s3.42,1.57,5.27,2.31c1.61.59,3.2,1.28,4.76,2.09,1.56.81,2.99,1.78,4.28,2.93,1.29,1.15,2.32,2.61,3.08,4.39.76,1.78,1.13,3.92,1.13,6.41,0,2.83-.7,5.38-2.09,7.65s-3.43,4.1-6.12,5.49-5.89,2.09-9.6,2.09c-2.25,0-4.43-.24-6.56-.73-2.12-.49-4.14-1.15-6.04-1.98-1.9-.83-3.66-1.83-5.27-3l3.81-6.59c1.17.88,2.51,1.68,4.03,2.42,1.51.73,3.06,1.32,4.65,1.76,1.59.44,3.11.66,4.58.66s2.97-.26,4.5-.77c1.54-.51,2.8-1.33,3.77-2.45.98-1.12,1.46-2.64,1.46-4.54,0-1.51-.44-2.8-1.32-3.85-.88-1.05-2.01-1.98-3.41-2.78-1.39-.81-2.92-1.53-4.58-2.16-1.61-.63-3.3-1.34-5.05-2.12-1.76-.78-3.38-1.75-4.87-2.89-1.49-1.15-2.67-2.55-3.55-4.21-.88-1.66-1.32-3.69-1.32-6.08,0-2.93.66-5.48,1.98-7.65,1.32-2.17,3.21-3.89,5.68-5.16,2.47-1.27,5.26-1.95,8.39-2.05,3.76,0,6.97.45,9.63,1.35,2.66.9,5.04,2.01,7.14,3.33l-3.3,6.52Z"/></g></svg>