<?xml version="1.0" encoding="UTF-8"?><svg id="Layer_2" xmlns="http://www.w3.org/2000/svg" viewBox="0 0 359.63 400"><defs><style>.cls-1{fill:#007965;}.cls-1,.cls-2{stroke-width:0px;}.cls-2{fill:#00af91;}</style></defs><g id="Layer_1-2"><path class="cls-1" d="m57.83,86.26c40.09-23.51,86.94-30,131.91-18.27,50.99,13.3,84.86,59.43,84.86,109.83,0,9.45-1.19,19.05-3.68,28.61-10.73,41.17-52.97,65.94-94.14,55.2-28.97-7.56-46.6-36.83-40.02-65.81-1.8,2.77-3.23,5.85-4.1,9.22-4.64,17.81-1.99,36.35,7.47,52.16,8.53,14.25,29.38,28.32,45.59,31.96,32.78,7.37,66.62,1.77,95.48-15.96,29.8-18.3,50.38-48.41,58.39-82.44.12-.5.23-1,.35-1.5,18.22-79.74-28.55-160.73-107.47-182.23C215.69,2.44,198.04,0,179.82,0,101.61,0,33.91,44.9,1.04,110.32c-4.76,9.48,7.95,17.93,15.02,10.02,11.9-13.29,25.92-24.8,41.76-34.09Z"/><path class="cls-2" d="m301.82,313.74c-40.09,23.51-86.94,30-131.91,18.27-29.33-7.65-53.93-26.26-69.26-52.4-15.33-26.15-19.56-56.7-11.92-86.03,10.73-41.17,52.96-65.93,94.14-55.2,14.31,3.73,26.32,12.82,33.8,25.57,7.21,12.3,9.34,26.58,6.14,40.41,1.87-2.85,3.3-6,4.18-9.39,9.48-36.33-12.38-73.59-48.71-83.06-68.62-17.89-139,23.38-156.9,92-.42,1.62-.83,3.25-1.21,4.87-19.11,80.35,27.31,162.49,106.99,184.21,16.77,4.57,34.43,7.01,52.65,7.01,78.21,0,145.91-44.9,178.77-110.32,4.76-9.48-7.94-17.93-15.02-10.02-11.9,13.29-25.92,24.79-41.75,34.08Z"/></g></svg>